# xmcd CD database file
#
# Track frame offsets:
#	150
#	25629
#	66093
#	96764
#	118798
#	135214
#	159732
#	175356
#	220031
#	239472
#
# Disc length: 3587 seconds
#
# Revision: 0
# Processed by: cddbd v1.5.2PL0 Copyright (c) Steve Scherf et al.
# Submitted via: CDex 1.51
#
DISCID=810e010a
DTITLE=Jean-Michel Jarre - Oxygene 3D
DYEAR=2007
DGENRE=New Age
TTITLE0=Prelude
TTITLE1=Oxygene Part I
TTITLE2=Oxygene Part II
TTITLE3=Oxygene Part III
TTITLE4=Variation I
TTITLE5=Oxygene Part IV
TTITLE6=Variation II
TTITLE7=Oxygene Part V
TTITLE8=Variation III
TTITLE9=Oxygene Part VI
EXTD=YEAR: 2007
EXTT0=
EXTT1=
EXTT2=
EXTT3=
EXTT4=
EXTT5=
EXTT6=
EXTT7=
EXTT8=
EXTT9=
PLAYORDER=
